# xmcd
#
# Track frame offsets:
#	150
#	13021
#	31530
#	47349
#	62041
#	75522
#	87406
#	98515
#	111763
#	128418
#	145975
#	157220
#	175718
#	187974
#	199977
#	210617
#	222298
#
# Disc length: 3122 seconds
#
# Revision: 1
# Processed by: cddbd v1.5.2PL0 Copyright (c) Steve Scherf et al.
# Submitted via: audiograbber 1.83.01
#
DISCID=da0c3011
DTITLE=Various Artist - Superstars Of Country Volume 3 [Disc 2]
DYEAR=2005
DGENRE=Country
TTITLE0=Kenny Rogers and The First Edition - Ruby, Don't Take Your Love To Town
TTITLE1=Johnny Cash - Sunday Morning Coming Down
TTITLE2=Kris Kristofferson - Why Me
TTITLE3=The Judds - Mama He's Crazy
TTITLE4=Waylon Jennings and Willie Nelson - Good Hearted Woman
TTITLE5=Loretta Lynn - One's On The Way
TTITLE6=The Statler Brothers - Bed Of Roses
TTITLE7=Tanya Tucker - Delta Dawn
TTITLE8=Ronnie Milsap - Any Day Now
TTITLE9=Emmylou Harris - Together Again
TTITLE10=Conway Twitty - Hello Darlin'
TTITLE11=Juice Newton - Sweetest Thing (I've Ever Known)
TTITLE12=Merle Haggard - If We Make It Through December
TTITLE13=Oak Ridge Boys - Elvira
TTITLE14=Jerry Reed - Amos Moses
TTITLE15=Billy 'Crash' Craddock - Rub It In
TTITLE16=Johnny Paycheck - Take This Job And Shove It
EXTD=Time Life Collection
EXTT0=
EXTT1=
EXTT2=
EXTT3=
EXTT4=
EXTT5=
EXTT6=
EXTT7=
EXTT8=
EXTT9=
EXTT10=
EXTT11=
EXTT12=
EXTT13=
EXTT14=
EXTT15=
EXTT16=
PLAYORDER=
